<?xml version="1.0" encoding="UTF-8"?>
<svg id="Layer_1" xmlns="http://www.w3.org/2000/svg" version="1.1" viewBox="0 0 18 18">
  <!-- Generator: Adobe Illustrator 29.1.0, SVG Export Plug-In . SVG Version: 2.1.0 Build 142)  -->
  <defs>
    <style>
      .st0 {
        fill: #fff;
      }
    </style>
  </defs>
  <path class="st0" d="M10.57,7.35c0,.07.02.14.03.21.01.07.02.14.03.21.01.09.02.18.03.27,0,.07.01.15.02.22,0,.09.02.19.03.28,0,.03,0,.06,0,.09.01.13.02.27.03.4,0,.12.02.23.03.35,0,.11.02.22.03.34,0,.09.01.17.02.26,0,.18,0,.35,0,.53,0,.22.01.45,0,.67,0,.14-.02.27-.03.41,0,.05,0,.1,0,.15,0,.09-.02.18-.03.27-.01.08-.02.16-.04.24-.01.06-.02.12-.03.17,0,.03-.02.07-.02.1-.02.06-.03.13-.05.19-.02.06-.04.11-.06.16-.02.06-.03.12-.05.17-.02.05-.04.1-.05.15-.02.07-.02.14-.04.2,0,.04-.02.09-.03.13-.01.05-.02.1-.04.15-.02.06-.04.13-.07.19-.02.06-.05.12-.08.18-.04.07-.08.15-.12.22-.03.05-.06.1-.09.14-.07.09-.13.18-.2.26-.12.14-.25.28-.38.41-.1.1-.21.19-.31.28-.08.07-.17.14-.26.21-.1.08-.19.15-.29.22-.13.09-.26.17-.39.24-.12.07-.24.12-.36.18-.08.04-.16.07-.24.1-.07.03-.13.05-.2.07-.14.04-.27.06-.41.1-.23.06-.47.05-.7.04-.09,0-.19,0-.28-.05-.05-.02-.11-.02-.17-.04-.04-.01-.08-.03-.11-.04-.05-.03-.11-.05-.16-.08-.07-.04-.14-.09-.2-.14-.07-.06-.14-.13-.21-.2-.09-.1-.16-.22-.21-.34-.03-.06-.05-.13-.07-.19-.07-.21-.08-.42-.06-.63,0-.11.02-.21.06-.31.02-.05.02-.1.04-.15.02-.06.04-.12.06-.18.05-.11.11-.23.17-.34.06-.1.12-.2.18-.29.04-.06.08-.12.13-.18.07-.09.14-.17.21-.26.09-.1.17-.19.26-.28.11-.1.22-.2.33-.3.09-.08.18-.15.27-.22.08-.06.15-.12.23-.17.09-.06.19-.13.29-.18.11-.06.23-.12.35-.18.09-.04.17-.08.26-.12.03-.01.07-.02.1-.03.02,0,.05-.02.07-.03.09-.03.18-.06.27-.07.07-.01.14-.02.21-.03.12,0,.24,0,.37,0,.02-.11.04-.21.06-.32.01-.1.02-.2.04-.29.01-.09.03-.18.04-.27,0-.02,0-.05,0-.07,0-.06.01-.13.02-.19,0-.13.01-.25.02-.38,0-.13.02-.26.02-.39,0-.32,0-.64,0-.96,0-.08,0-.15,0-.23,0-.12-.02-.25-.03-.37,0-.1,0-.2-.02-.29,0-.1-.02-.2-.03-.3,0-.08-.02-.15-.03-.23-.01-.1-.02-.2-.03-.29,0-.07-.01-.15-.02-.22,0-.07-.02-.13-.03-.2,0-.02,0-.04-.01-.07-.01-.07-.02-.15-.04-.22-.02-.1-.03-.2-.04-.29-.02-.09-.03-.17-.05-.26-.02-.1-.05-.19-.07-.29-.02-.11-.05-.21-.07-.32-.02-.08-.04-.16-.07-.24-.03-.09-.05-.18-.08-.27-.04-.13-.09-.25-.14-.38-.02-.06-.04-.11-.06-.17-.02-.06-.05-.13-.08-.19-.04-.11-.08-.21-.13-.32-.03-.08-.07-.15-.1-.23-.03-.09-.06-.19-.09-.28-.01-.04-.02-.07-.03-.11,0-.03-.01-.07-.02-.1,0-.05,0-.09,0-.14,0-.09,0-.17.04-.25.02-.04.02-.09.04-.13.05-.12.12-.23.21-.32.05-.05.11-.1.17-.15.06-.04.13-.07.19-.1.04-.02.07-.04.11-.05.04-.01.08-.03.12-.03.08-.01.15-.03.23-.03.08,0,.16.01.24.02.05,0,.09.01.14.03.07.02.14.05.21.09.11.05.22.11.33.17.14.07.28.14.42.22.08.05.16.1.24.15.12.07.24.14.35.21.11.08.22.16.32.25.13.11.26.22.39.34.11.11.22.23.32.35.05.05.1.11.14.17.04.06.08.13.12.19.04.06.08.12.12.18.08.13.17.26.24.4.08.13.15.27.23.41.06.12.12.24.18.36.05.1.1.21.15.31.05.12.11.23.16.35.05.12.1.25.15.37.03.07.05.15.05.23,0,.04.03.08.02.13,0,0,0,.01,0,.02-.03.07-.02.14-.04.21-.03.1-.08.2-.15.28-.05.06-.11.11-.18.16-.06.05-.13.08-.2.11-.06.03-.12.03-.19.04-.04,0-.09,0-.14,0-.12,0-.23-.04-.33-.08-.11-.05-.2-.13-.27-.22-.05-.07-.09-.15-.13-.22-.05-.09-.09-.17-.14-.26-.05-.1-.11-.2-.17-.3-.03-.06-.08-.11-.12-.17-.1-.14-.2-.28-.3-.42-.08-.11-.17-.22-.26-.32-.09-.1-.19-.2-.29-.29-.03-.03-.06-.06-.1-.1,0,0-.02-.01-.03-.02,0,0,0,0-.01,0,0,.02,0,.04,0,.06.01.08.02.15.03.23,0,.06.01.11.02.17.01.07.02.15.04.22.01.08.03.17.04.25,0,.05.02.1.03.15.01.07.02.15.03.22,0,.06.02.13.03.19,0,.04.01.09.02.14.01.09.03.17.04.26.01.1.03.2.04.3,0,.08.02.16.03.23,0,.03,0,.06.02.09Z"/>
</svg>